<svg id="crosscircle" xmlns="http://www.w3.org/2000/svg" width="27.427" height="27.427" viewBox="0 0 27.427 27.427">
  <path id="Path_246202" data-name="Path 246202" d="M17.184,8.042a1.143,1.143,0,0,0-1.616,0L12.613,11,9.658,8.042A1.143,1.143,0,1,0,8.042,9.658L11,12.613,8.042,15.568a1.143,1.143,0,1,0,1.616,1.616l2.955-2.955,2.955,2.955a1.143,1.143,0,1,0,1.616-1.616l-2.955-2.955,2.955-2.955A1.143,1.143,0,0,0,17.184,8.042Z" transform="translate(1.1 1.1)"/>
  <path id="Path_246203" data-name="Path 246203" d="M13.713,0A13.713,13.713,0,1,0,27.427,13.713,13.713,13.713,0,0,0,13.713,0Zm0,25.141A11.428,11.428,0,1,1,25.141,13.713,11.428,11.428,0,0,1,13.713,25.141Z"/>
</svg>
